# xmcd
#
# Track frame offsets:
#	150
#	16905
#	26595
#	42507
#	60750
#	73840
#	86632
#	104232
#	117130
#	126260
#	136115
#	145680
#	162485
#	174957
#	192040
#	204000
#	213792
#
# Disc length: 3027 seconds
#
# Revision: 2
# Processed by: cddbd v1.5.2PL0 Copyright (c) Steve Scherf et al.
# Submitted via: audiograbber 1.82.02
#
DISCID=e40bd111
DTITLE=Various Artist - Greatest Yodelling Hits
DYEAR=2007
DGENRE=Country
TTITLE0=Slim Dusty - Drovin'
TTITLE1=Frank Ifield - She Taught Me To Yodel
TTITLE2=Wayne Horsburgh - Shepherd's Farewell
TTITLE3=Mary Schneider - Indian Love Call
TTITLE4=Corinna Cordwell - Chime Bells
TTITLE5=Owen Blundell - My Sweetheart's In Love With A Swiss
TTITLE6=Rex Dallas - Freight Train Yodel
TTITLE7=Wayne Horsburgh - Casting My Lasso
TTITLE8=Mary Schneider - Cuckoo Yodel
TTITLE9=Heather McKean - Gymkhana Yodel
TTITLE10=Reg Lindsay - Streamlined Yodel
TTITLE11=Corinna Cordwell - Mocking Bird Yodel
TTITLE12=Owen Blundell - Rockonover River
TTITLE13=Wayne Horsburgh - Home On The Range
TTITLE14=Kathryn Pitt - Daddy Was A Yodelling Cowboy
TTITLE15=Rex Dallas - Starlight Serenade
TTITLE16=Shirley Thomas - Where The Golden Wattle Blooms
EXTD=
EXTT0=
EXTT1=
EXTT2=
EXTT3=
EXTT4=
EXTT5=
EXTT6=
EXTT7=
EXTT8=
EXTT9=
EXTT10=
EXTT11=
EXTT12=
EXTT13=
EXTT14=
EXTT15=
EXTT16=
PLAYORDER=
